<svg width="266" height="63" viewBox="0 0 266 63" fill="none" xmlns="http://www.w3.org/2000/svg">
<path d="M205.978 62.8478H196.659V19.0492H205.978V62.8478Z" fill="#111111"/>
<path d="M20.2254 28.0296C18.7847 28.0089 17.3559 28.3064 16.0309 28.9028C14.706 29.4992 13.5143 30.3813 12.5325 31.4924C10.4377 33.7756 9.39036 36.9339 9.39036 40.9295C9.39036 44.925 10.4377 48.1595 12.5686 50.4807C13.5655 51.6049 14.7745 52.4972 16.118 53.1001C17.4614 53.703 18.9097 54.0032 20.3699 53.9815C23.1147 53.9815 25.3179 53.1824 26.9792 51.6223C28.5238 50.2031 29.662 48.3582 30.2659 46.2949L38.5005 49.4533C37.417 53.1444 35.3222 56.3408 32.2162 59.0045C29.1101 61.6682 25.1734 63 20.3699 63C14.5912 63 9.75153 60.9071 5.85092 56.6833C1.95031 52.4594 0 47.2081 0 40.9295C0 34.5747 1.91419 29.3234 5.77868 25.1757C9.64318 21.0279 14.4106 18.935 20.1532 18.935C25.065 18.935 29.074 20.2669 32.18 22.9305C35.1248 25.3689 37.2409 28.7465 38.2115 32.5579L29.7963 35.7923C29.2911 33.6854 28.2113 31.7805 26.6903 30.3128C25.1048 28.7907 22.9739 28.0296 20.2254 28.0296Z" fill="#111111"/>
<path d="M53.9621 50.3665C55.0004 51.4735 56.2364 52.3531 57.5988 52.9546C58.9612 53.556 60.4231 53.8675 61.9002 53.8711C63.3774 53.8746 64.8406 53.5701 66.2056 52.9752C67.5706 52.3802 68.8104 51.5066 69.8534 50.4046C72.0205 48.0834 73.104 44.8869 73.104 40.7392C73.104 36.6676 72.0205 33.5092 69.8534 31.226C67.7334 29.0312 64.88 27.8015 61.9078 27.8015C58.9355 27.8015 56.0822 29.0312 53.9621 31.226C51.7951 33.5092 50.7116 36.6676 50.7116 40.7392C50.7116 44.8108 51.7951 48.0453 53.9621 50.3665ZM61.9078 18.935C67.9393 18.935 72.9234 20.9899 76.824 25.0995C80.7246 29.2092 82.711 34.4224 82.711 40.7772C82.711 47.132 80.7607 52.3453 76.824 56.493C72.8873 60.6407 67.9393 62.6956 61.9078 62.6956C55.9485 62.6956 51.0005 60.6407 47.0638 56.493C43.127 52.3453 41.1767 47.094 41.1767 40.7772C41.1767 34.4605 43.127 29.2473 47.0638 25.0995C51.0005 20.9518 55.9124 18.935 61.9078 18.935Z" fill="#111111"/>
<path d="M107.018 19.2014V29.2092C106.001 29.045 104.976 28.9559 103.948 28.9429C96.8688 28.9429 93.3655 32.5959 93.3655 40.7011V62.6956H83.9751V19.0492H93.1126V26.0509C94.011 23.847 95.5719 22.0153 97.555 20.8376C99.6702 19.545 102.081 18.887 104.526 18.935C105.363 18.9274 106.199 19.0168 107.018 19.2014Z" fill="#111111"/>
<path d="M119.839 36.287H140.751C140.717 35.0555 140.447 33.8439 139.957 32.7254C139.467 31.607 138.766 30.605 137.897 29.78C136.128 28.0296 133.563 27.1544 130.241 27.1544C127.207 27.1544 124.751 28.0677 122.909 29.8942C121.067 31.7207 120.02 33.8669 119.839 36.287ZM141.87 47.0179L150.43 49.6435C149.202 53.4107 146.927 56.5311 143.568 59.0045C140.209 61.4779 136.092 62.6956 131.18 62.6956C125.112 62.6956 119.984 60.6788 115.758 56.6833C111.532 52.6877 109.401 47.3223 109.401 40.587C109.401 34.2702 111.46 29.057 115.577 25.0234C119.48 21.0566 124.71 18.8692 130.132 18.935C136.669 18.935 141.762 20.8757 145.446 24.719C149.13 28.5623 150.968 33.7756 150.968 40.3358C150.968 42.0863 150.896 43.1137 150.715 43.4562H119.583C119.622 44.9285 119.957 46.3753 120.568 47.7006C121.178 49.0258 122.049 50.1992 123.122 51.1428C125.371 53.1716 128.252 54.2555 131.212 54.187C136.669 54.2098 140.245 51.8125 141.87 47.0179Z" fill="#111111"/>
<path d="M162.493 62.8478H152.958V0H162.565V25.305C163.576 23.5546 165.238 22.0705 167.549 20.8909C170.031 19.6569 172.751 19.0447 175.495 19.1024C181.454 19.1024 186.113 21.1192 189.472 25.1909C192.831 29.2625 194.492 34.4377 194.492 40.7544C194.492 47.1853 192.723 52.4366 189.219 56.5843C185.716 60.7321 181.021 62.7488 175.17 62.7488C169.319 62.7488 165.093 60.5798 162.493 56.2038V62.8478ZM181.526 50.4046C183.585 48.0453 184.596 44.8489 184.596 40.8153C184.596 36.7817 183.585 33.6233 181.563 31.3021C179.54 28.9809 176.867 27.8393 173.545 27.8393C170.33 27.8393 167.694 28.9809 165.599 31.3021C163.504 33.6233 162.493 36.7817 162.493 40.8153C162.493 44.8489 163.54 47.9692 165.599 50.3665C167.658 52.7638 170.33 53.9435 173.545 53.9435C176.831 53.9435 179.468 52.7638 181.526 50.4046Z" fill="#111111"/>
<path d="M250.04 62.8097H208.939V54.2098L234.907 27.7252H208.506V19.0492H249.968V27.3979L223.675 54.1109H250.04V62.825V62.8097Z" fill="#111111"/>
<path d="M254.626 60.9879C254.002 60.3515 253.51 59.5885 253.179 58.746C252.848 57.9034 252.685 56.999 252.701 56.0884C252.685 55.1723 252.847 54.2624 253.178 53.4138C253.509 52.5653 254.002 51.7959 254.626 51.1523C255.226 50.4864 255.954 49.9599 256.762 49.6071C257.569 49.2543 258.439 49.0832 259.315 49.1048C261.087 49.1067 262.786 49.8431 264.039 51.1524C265.292 52.4616 265.996 54.2368 265.998 56.0884C266.019 57.003 265.855 57.912 265.518 58.7561C265.18 59.6002 264.676 60.3607 264.039 60.9879C263.421 61.6374 262.684 62.1502 261.873 62.4957C261.061 62.8412 260.191 63.0123 259.315 62.9989C258.443 63.0154 257.578 62.8456 256.771 62.4997C255.965 62.1539 255.235 61.6394 254.626 60.9879V60.9879Z" fill="#BFBFBF"/>
</svg>
